<svg xmlns="http://www.w3.org/2000/svg" viewBox="0 0 1199.532 450.814">
  <defs>
    <style>
      .cls-1 {
        opacity: 0.64;
      }

      .cls-2 {
        fill: #eaf3f9;
      }

      .cls-3 {
        opacity: 0.34;
      }

      .cls-4 {
        opacity: 0.63;
      }
    </style>
  </defs>
  <g id="Group_2162" data-name="Group 2162" transform="translate(-155.702 -124.354)">
    <g id="Clouds_1_" class="cls-1" transform="translate(798.702 164.354)">
      <g id="Group_2150" data-name="Group 2150" transform="translate(475.223 69.587)">
        <path id="Path_1199" data-name="Path 1199" class="cls-2" d="M531.529,2.527c8.648,5.847,15.661,19.94,15.608,31.572a21.327,21.327,0,0,1-.475,4.677,20.782,20.782,0,0,1,3.638,1.969c8.648,5.847,15.661,20.186,15.608,31.7L484.6,17.667c.053-11.509,7.118-16.432,15.766-10.586a30.928,30.928,0,0,1,8.859,9.662c1.74-1.477,4.06-1.723,6.749-.492-.105-1.108-.158-2.154-.158-3.2C515.868,1.358,522.881-3.319,531.529,2.527Z" transform="translate(-484.6 -0.01)"/>
      </g>
      <g id="Group_2151" data-name="Group 2151" class="cls-3" transform="translate(344.422 62)">
        <path id="Path_1200" data-name="Path 1200" class="cls-2" d="M26.576,98.9c4.884,3.331,8.88,11.327,8.816,17.842a11.765,11.765,0,0,1-.254,2.665,10.854,10.854,0,0,1,2.03,1.11c4.884,3.331,8.88,11.475,8.816,17.916L0,107.409c0-6.515,4-9.254,8.88-6a18.042,18.042,0,0,1,5.011,5.478,3.458,3.458,0,0,1,3.806-.3,18.045,18.045,0,0,1-.063-1.851C17.7,98.229,21.692,95.564,26.576,98.9Z" transform="translate(0 -97.458)"/>
      </g>
      <g id="Group_2152" data-name="Group 2152" class="cls-4" transform="translate(487.467 235.607)">
        <path id="Path_1201" data-name="Path 1201" class="cls-2" d="M27.857,258.654c3.425,2.295,6.152,7.847,6.152,12.437a8.646,8.646,0,0,1-.19,1.851,4.56,4.56,0,0,1,1.4.814c3.425,2.295,6.152,7.921,6.152,12.511L9.4,264.651c0-4.516,2.791-6.441,6.216-4.146a12.966,12.966,0,0,1,3.489,3.776,2.425,2.425,0,0,1,2.664-.222A8.367,8.367,0,0,1,21.7,262.8C21.7,258.21,24.5,256.36,27.857,258.654Z" transform="translate(-9.4 -257.67)"/>
      </g>
      <g id="Group_2154" data-name="Group 2154" class="cls-3" transform="translate(0 254)">
        <path id="Path_1200-2" data-name="Path 1200" class="cls-2" d="M18.042,98.434c3.316,2.262,6.028,7.689,5.985,12.112a7.987,7.987,0,0,1-.172,1.809,7.369,7.369,0,0,1,1.378.754c3.316,2.262,6.028,7.79,5.985,12.162L0,104.213c0-4.423,2.713-6.282,6.028-4.071a12.248,12.248,0,0,1,3.4,3.719,2.348,2.348,0,0,1,2.584-.2,12.251,12.251,0,0,1-.043-1.256C12.014,97.982,14.726,96.172,18.042,98.434Z" transform="translate(0 -97.458)"/>
      </g>
      <g id="Group_2155" data-name="Group 2155" class="cls-3" transform="translate(60.831)">
        <path id="Path_1200-3" data-name="Path 1200" class="cls-2" d="M12.291,98.123a10.946,10.946,0,0,1,4.077,8.251,5.441,5.441,0,0,1-.117,1.233,5.02,5.02,0,0,1,.939.514,11.075,11.075,0,0,1,4.077,8.286L0,102.06c0-3.013,1.848-4.28,4.107-2.773a8.344,8.344,0,0,1,2.317,2.534,1.6,1.6,0,0,1,1.76-.137,8.346,8.346,0,0,1-.029-.856C8.184,97.815,10.032,96.582,12.291,98.123Z" transform="translate(0 -97.458)"/>
      </g>
    </g>
    <g id="Clouds_1_2" data-name="Clouds_1_" class="cls-1" transform="translate(222.702 251.354)">
      <g id="Group_2151-2" data-name="Group 2151" class="cls-3" transform="translate(441.422 -84)">
        <path id="Path_1200-4" data-name="Path 1200" class="cls-2" d="M26.576,98.9c4.884,3.331,8.88,11.327,8.816,17.842a11.765,11.765,0,0,1-.254,2.665,10.854,10.854,0,0,1,2.03,1.11c4.884,3.331,8.88,11.475,8.816,17.916L0,107.409c0-6.515,4-9.254,8.88-6a18.042,18.042,0,0,1,5.011,5.478,3.458,3.458,0,0,1,3.806-.3,18.045,18.045,0,0,1-.063-1.851C17.7,98.229,21.692,95.564,26.576,98.9Z" transform="translate(0 -97.458)"/>
      </g>
      <g id="Group_2152-2" data-name="Group 2152" class="cls-4" transform="translate(425.467 95.607)">
        <path id="Path_1201-2" data-name="Path 1201" class="cls-2" d="M27.857,258.654c3.425,2.295,6.152,7.847,6.152,12.437a8.646,8.646,0,0,1-.19,1.851,4.56,4.56,0,0,1,1.4.814c3.425,2.295,6.152,7.921,6.152,12.511L9.4,264.651c0-4.516,2.791-6.441,6.216-4.146a12.966,12.966,0,0,1,3.489,3.776,2.425,2.425,0,0,1,2.664-.222A8.367,8.367,0,0,1,21.7,262.8C21.7,258.21,24.5,256.36,27.857,258.654Z" transform="translate(-9.4 -257.67)"/>
      </g>
      <g id="Group_2154-2" data-name="Group 2154" class="cls-3" transform="translate(-67 296)">
        <path id="Path_1200-5" data-name="Path 1200" class="cls-2" d="M18.042,98.434c3.316,2.262,6.028,7.689,5.985,12.112a7.987,7.987,0,0,1-.172,1.809,7.369,7.369,0,0,1,1.378.754c3.316,2.262,6.028,7.79,5.985,12.162L0,104.213c0-4.423,2.713-6.282,6.028-4.071a12.248,12.248,0,0,1,3.4,3.719,2.348,2.348,0,0,1,2.584-.2,12.251,12.251,0,0,1-.043-1.256C12.014,97.982,14.726,96.172,18.042,98.434Z" transform="translate(0 -97.458)"/>
      </g>
      <g id="Group_2155-2" data-name="Group 2155" class="cls-3" transform="translate(84.831 -127)">
        <path id="Path_1200-6" data-name="Path 1200" class="cls-2" d="M12.291,98.123a10.946,10.946,0,0,1,4.077,8.251,5.441,5.441,0,0,1-.117,1.233,5.02,5.02,0,0,1,.939.514,11.075,11.075,0,0,1,4.077,8.286L0,102.06c0-3.013,1.848-4.28,4.107-2.773a8.344,8.344,0,0,1,2.317,2.534,1.6,1.6,0,0,1,1.76-.137,8.346,8.346,0,0,1-.029-.856C8.184,97.815,10.032,96.582,12.291,98.123Z" transform="translate(0 -97.458)"/>
      </g>
    </g>
  </g>
</svg>
