<svg xmlns="http://www.w3.org/2000/svg" viewBox="0 0 612.845 549.889">
  <defs>
    <style>
      .cls-1 {
        fill: #4387e8;
      }

      .cls-2 {
        fill: #204670;
      }

      .cls-3, .cls-4 {
        fill: #fff;
      }

      .cls-4 {
        font-size: 180px;
        font-family: SourceSansPro-Semibold, Source Sans Pro;
        font-weight: 600;
      }

      .cls-5 {
        font-family: SourceSansPro-Bold, Source Sans Pro;
        font-weight: 700;
      }
    </style>
  </defs>
  <g id="Discount" transform="translate(-654 -264.958)">
    <g id="sale" transform="translate(654 264.958)">
      <path id="Path_8" data-name="Path 8" class="cls-1" d="M463.414,532.629l91.607-174.373,13.915-26.477a68.914,68.914,0,0,0,3.8-8.707,66.731,66.731,0,0,0-31.821-81.362L219.549,72.88a58.107,58.107,0,0,0-57.234,1.81L40.206,149.017a58.145,58.145,0,0,0-27.864,48.171c-.017.574-.034,1.15-.034,1.708,0,1.064.034,2.131.1,3.211l.135,2.131L19.121,314,20.9,343.8a58.13,58.13,0,0,0,30.975,47.968L116.089,425.5,373.362,560.658A66.682,66.682,0,0,0,463.414,532.629ZM114.026,225.967c-.406-.406-.76-.811-1.15-1.2-.9-.98-1.725-2-2.485-3.01a38.709,38.709,0,1,1,65.367-5.343,12.139,12.139,0,0,1-.71,1.284c-.22.422-.474.828-.743,1.251a39.54,39.54,0,0,1-2.52,3.618c-.271.355-.576.727-.88,1.064-.676.795-1.387,1.555-2.131,2.334A38.717,38.717,0,0,1,114.026,225.967Z" transform="translate(2.424 -18.436)"/>
      <path id="Path_9" data-name="Path 9" class="cls-1" d="M463.413,532.629,555.02,358.256l13.915-26.477a68.907,68.907,0,0,0,3.8-8.707,66.731,66.731,0,0,0-31.821-81.362L219.548,72.881a58.111,58.111,0,0,0-57.234,1.809L40.2,149.017a58.028,58.028,0,0,0-16.723,15.4l-2.9,4.836a58.081,58.081,0,0,0-8.269,29.888c0,.577.032,1.159.055,1.739.013.461.024.92.048,1.381l.093,1.485a58.026,58.026,0,0,0,8.167,25.433L78.64,325.112l15.443,25.554A58.148,58.148,0,0,0,106.5,365.139L223.071,481.707l150.287,78.954A66.689,66.689,0,0,0,463.413,532.629ZM175.756,216.413a12.128,12.128,0,0,1-.71,1.284c-.22.422-.474.828-.743,1.251a39.768,39.768,0,0,1-2.518,3.618c-.271.354-.576.727-.88,1.064-.676.795-1.387,1.555-2.131,2.334a38.719,38.719,0,0,1-54.749,0c-.406-.406-.76-.812-1.15-1.2-.9-.98-1.725-2-2.485-3.009a38.709,38.709,0,1,1,65.366-5.342Z" transform="translate(2.425 -18.436)"/>
      <path id="Path_10" data-name="Path 10" class="cls-2" d="M143.8,386.576H543.734a66.689,66.689,0,0,0,66.686-66.686V93A66.693,66.693,0,0,0,543.734,26.3h-399.8A58.091,58.091,0,0,0,94.123,54.519L20.581,177.112a58.121,58.121,0,0,0,.095,59.926L78.64,332.972l15.443,25.554A58.1,58.1,0,0,0,143.8,386.576Zm31.952-162.3a14.076,14.076,0,0,1-.7,1.276q-.343.628-.742,1.257a38.568,38.568,0,0,1-2.533,3.618c-.267.361-.571.723-.876,1.065-.667.8-1.391,1.561-2.133,2.323a38.71,38.71,0,0,1-54.747,0c-.4-.4-.761-.8-1.143-1.2a36.229,36.229,0,0,1-2.494-3.009,38.71,38.71,0,1,1,65.372-5.331Z" transform="translate(2.425 -26.298)"/>
      <path id="Path_19" data-name="Path 19" class="cls-3" d="M153.038,209.023h0a36.594,36.594,0,0,1-51.753,0L10.719,118.456a36.594,36.594,0,0,1,0-51.753h0a36.594,36.594,0,0,1,51.753,0l90.567,90.567A36.6,36.6,0,0,1,153.038,209.023Z" transform="translate(0 -20.451)"/>
    </g>
    <text id="_30_" data-name="30%" class="cls-4" transform="translate(874.719 504.248)"><tspan x="0" y="0">30</tspan><tspan class="cls-5" y="0">%</tspan></text>
  </g>
</svg>
