<svg xmlns="http://www.w3.org/2000/svg" viewBox="0 0 306.96 237.694">
  <defs>
    <style>
      .cls-1 {
        fill: #ffe19f;
      }

      .cls-2 {
        fill: #fdcc4a;
      }

      .cls-3 {
        fill: #ffe98d;
      }

      .cls-4 {
        fill: #ffd800;
      }

      .cls-5 {
        fill: #204670;
      }

      .cls-6 {
        fill: #14549b;
      }

      .cls-7 {
        fill: #9bb7d7;
      }

      .cls-8 {
        fill: #4387e8;
      }

      .cls-9 {
        fill: #fff;
      }

      .cls-10 {
        fill: #e5ac91;
      }

      .cls-11 {
        fill: #f4f4fc;
      }
    </style>
  </defs>
  <g id="money" transform="translate(0 -57.767)">
    <path id="Path_769" data-name="Path 769" class="cls-1" d="M93.132,87.68c-.008-7.254,5.278-14.907,15.629-20.883,18.909-10.917,47.513-12.1,63.888-2.648,7.339,4.237,10.965,9.893,11.042,15.828h0V98.39h-.011c0,.06,0,.12,0,.18h.015v18.124h-.011c0,.06,0,.121,0,.18h.015v9.407h-.011c0,.144-.008.29-.008.434l.02,0v9.407h-.011c.2,7.37-5.083,15.191-15.621,21.275-18.909,10.917-47.513,12.1-63.888,2.648-7.594-4.384-11.174-10.29-11-16.449l.007-9.183c0-.219-.013-.438-.007-.657l0-9.183c0-.135-.008-.269,0-.4l0-9.182.007-8.718c0-.135-.008-.269,0-.4l-.056-9h0V87.681Z" transform="translate(-37.291 0)"/>
    <g id="Group_1226" data-name="Group 1226" transform="translate(55.878 98.569)">
      <path id="Path_770" data-name="Path 770" class="cls-2" d="M104.208,149.568c16.376,9.455,44.979,8.269,63.888-2.648,10.452-6.034,15.731-13.778,15.617-21.1h.015v9.407h-.011c.2,7.37-5.083,15.192-15.621,21.275-18.909,10.917-47.513,12.1-63.888,2.648-7.594-4.384-11.174-10.29-11-16.449l0-9.181C93.2,139.537,96.782,145.281,104.208,149.568Z" transform="translate(-93.204 -125.824)"/>
      <path id="Path_771" data-name="Path 771" class="cls-2" d="M104.208,180.1c16.376,9.455,44.979,8.269,63.888-2.648,10.452-6.034,15.731-13.778,15.617-21.094h.015v9.407h-.011c.2,7.37-5.083,15.192-15.621,21.276-18.909,10.917-47.513,12.1-63.888,2.648-7.594-4.384-11.174-10.29-11-16.449l0-9.181C93.2,170.069,96.782,175.813,104.208,180.1Z" transform="translate(-93.204 -138.051)"/>
    </g>
    <path id="Path_772" data-name="Path 772" class="cls-3" d="M108.761,66.8C89.852,77.714,87.8,94.229,104.174,103.684s44.98,8.269,63.888-2.648S189.025,73.6,172.65,64.149,127.671,55.881,108.761,66.8Z" transform="translate(-37.291 0)"/>
    <path id="Path_773" data-name="Path 773" class="cls-2" d="M183.692,94.813c.1,7.306-5.195,15.034-15.629,21.059-18.909,10.917-47.513,12.1-63.888,2.648-7.411-4.279-11.035-10.006-11.042-16h-.013V111.7s.281,10.075,11.055,16.444c16.277,9.623,44.979,8.269,63.888-2.648,10.537-6.084,15.825-13.906,15.62-21.276h.012V94.813h0Z" transform="translate(-37.291 -14.836)"/>
    <path id="Path_774" data-name="Path 774" class="cls-4" d="M119.4,72.941c-15.551,8.978-17.239,22.56-3.772,30.335s36.991,6.8,52.542-2.178,17.24-22.559,3.772-30.335S134.952,63.962,119.4,72.941Z" transform="translate(-42.665 -3.102)"/>
    <path id="Path_776" data-name="Path 776" class="cls-5" d="M306.96,152.133V191.72L102.32,309.593,0,250.59V211.207H0L204.64,93.058l102.32,59.075" transform="translate(0 -14.133)"/>
    <path id="Path_777" data-name="Path 777" class="cls-6" d="M375.307,191.593V231.18L170.667,349.054V309.811Z" transform="translate(-68.347 -53.593)"/>
    <g id="Group_1227" data-name="Group 1227" transform="translate(0 145.888)">
      <path id="Path_778" data-name="Path 778" class="cls-7" d="M102.412,322.944,307.056,204.751v7.889L102.412,330.871.241,271.882v-7.889Z" transform="translate(-0.097 -204.751)"/>
      <path id="Path_779" data-name="Path 779" class="cls-7" d="M102.354,349.2,306.96,231.068v7.889L102.354,357.122,0,298.107v-7.881Z" transform="translate(0 -215.29)"/>
    </g>
    <g id="Group_1228" data-name="Group 1228" transform="translate(102.316 145.888)">
      <path id="Path_780" data-name="Path 780" class="cls-7" d="M375.3,204.751v7.889L170.66,330.871v-7.926Z" transform="translate(-170.66 -204.751)"/>
      <path id="Path_781" data-name="Path 781" class="cls-7" d="M375.329,231.068v7.889L170.724,357.122V349.2Z" transform="translate(-170.686 -215.29)"/>
    </g>
    <path id="Path_782" data-name="Path 782" class="cls-8" d="M37.48,232.872,0,211.207H0L204.64,93.058l102.32,59.075L102.32,270.351Z" transform="translate(0 -14.133)"/>
    <path id="Path_783" data-name="Path 783" class="cls-9" d="M32.651,218.78l82.854,47.743L300.548,159.679,217.727,111.9Z" transform="translate(-13.076 -21.68)"/>
    <path id="Path_784" data-name="Path 784" class="cls-8" d="M294.387,167.128,230.948,130.5,65.5,226.229l63.27,36.45Z" transform="translate(-26.23 -29.128)"/>
    <path id="Path_785" data-name="Path 785" class="cls-10" d="M182.03,158.748l102.319,59.1v39.472l-68.071,39.188V257.17L113.874,198.1Z" transform="translate(-45.603 -40.44)"/>
    <path id="Path_786" data-name="Path 786" class="cls-6" d="M182.03,158.748l102.319,59.1L216.278,257.17,113.874,198.1Z" transform="translate(-45.603 -40.44)"/>
    <path id="Path_787" data-name="Path 787" class="cls-6" d="M284.681,296.645v39.336l68.071-39.188V257.321Z" transform="translate(-114.006 -79.915)"/>
    <path id="Path_788" data-name="Path 788" class="cls-9" d="M129.126,196.311l49.953-28.84,102.288,59.093L231.5,255.387Z" transform="translate(-51.711 -43.933)"/>
    <path id="Path_789" data-name="Path 789" class="cls-11" d="M349.744,266.036V305.52L299.87,334.248l0-39.389Z" transform="translate(-120.089 -83.406)"/>
    <g id="Group_1229" data-name="Group 1229" transform="translate(25.935 93.542)">
      <path id="Path_790" data-name="Path 790" class="cls-9" d="M325.183,130.839c5.856,3.381,14.713,3.748,19.784.82s4.435-8.042-1.42-11.423-14.713-3.748-19.785-.82S319.328,127.458,325.183,130.839Z" transform="translate(-154.221 -117.439)"/>
      <path id="Path_791" data-name="Path 791" class="cls-9" d="M336.179,183.819c3.392,1.958,8.522,2.171,11.459.475s2.569-4.658-.823-6.616-8.522-2.171-11.459-.475S332.787,181.86,336.179,183.819Z" transform="translate(-159.441 -140.914)"/>
      <path id="Path_792" data-name="Path 792" class="cls-9" d="M146.735,292.967c3.392,1.958,8.522,2.171,11.459.475s2.569-4.658-.823-6.616-8.522-2.171-11.459-.475S143.343,291.009,146.735,292.967Z" transform="translate(-83.574 -184.625)"/>
      <path id="Path_793" data-name="Path 793" class="cls-9" d="M48.1,291.032c5.856,3.381,14.713,3.748,19.785.82s4.435-8.042-1.42-11.422-14.713-3.748-19.785-.82S42.247,287.651,48.1,291.032Z" transform="translate(-43.258 -181.592)"/>
      <path id="Path_794" data-name="Path 794" class="cls-9" d="M427.712,190.16c5.856,3.381,14.713,3.748,19.785.82s4.435-8.042-1.42-11.422-14.713-3.748-19.784-.82S421.857,186.779,427.712,190.16Z" transform="translate(-195.281 -141.196)"/>
      <path id="Path_795" data-name="Path 795" class="cls-9" d="M150.115,350.4c5.856,3.381,14.714,3.748,19.785.82s4.435-8.042-1.42-11.422-14.713-3.748-19.785-.82S144.26,347.021,150.115,350.4Z" transform="translate(-84.112 -205.368)"/>
    </g>
    <g id="Group_1230" data-name="Group 1230" transform="translate(108.224 135.92)">
      <path id="Path_796" data-name="Path 796" class="cls-6" d="M285.655,235.933l-82.87-47.809-8.854,5.109,82.87,47.911Z" transform="translate(-185.888 -188.124)"/>
      <path id="Path_797" data-name="Path 797" class="cls-6" d="M252.608,251.341l-63.29-36.552-8.8,5.11,63.29,36.489Z" transform="translate(-180.515 -198.803)"/>
    </g>
  </g>
</svg>
