<svg xmlns="http://www.w3.org/2000/svg" viewBox="0 0 175.65 254.731">
  <defs>
    <style>
      .cls-1 {
        fill: #14549b;
      }

      .cls-2 {
        fill: #4387e8;
      }

      .cls-3 {
        fill: #ffd800;
      }

      .cls-4, .cls-5 {
        fill: #fff;
      }

      .cls-4, .cls-6 {
        opacity: 0.3;
      }

      .cls-6 {
        fill: #ffe98d;
      }
    </style>
  </defs>
  <g id="light-bulb" transform="translate(-79.475)">
    <g id="Group_1231" data-name="Group 1231" transform="translate(80.66 1.327)">
      <path id="Path_798" data-name="Path 798" class="cls-1" d="M168.5,2.667c84.191,0,119.152,111.355,49.547,159.009v54.009c0,11.505-10.292,19.162-19.633,23.353-2.984,22.711-56.843,22.711-59.827,0-9.352-4.2-19.633-12.183-19.633-23.353V161.676C49.577,114.181,84.012,2.667,168.5,2.667Z" transform="translate(-81.857 -2.667)"/>
      <path id="Path_799" data-name="Path 799" class="cls-1" d="M255.506,334.85V382.6c0,16.181-22.183,29.3-49.547,29.3s-49.547-13.117-49.547-29.3V334.85Z" transform="translate(-119.32 -169.582)"/>
    </g>
    <g id="Group_1232" data-name="Group 1232" transform="translate(117.753 166.595)">
      <path id="Path_800" data-name="Path 800" class="cls-2" d="M205.96,428.116c27.364,0,49.547-13.117,49.547-29.3v15.925c0,16.181-22.183,29.3-49.547,29.3s-49.547-13.117-49.547-29.3V398.818C156.413,415,178.6,428.116,205.96,428.116Z" transform="translate(-156.413 -366.993)"/>
      <path id="Path_801" data-name="Path 801" class="cls-2" d="M205.96,364.148c27.364,0,49.547-13.117,49.547-29.3v15.925c0,16.181-22.183,29.3-49.547,29.3s-49.547-13.117-49.547-29.3V334.85C156.413,351.031,178.6,364.148,205.96,364.148Z" transform="translate(-156.413 -334.85)"/>
    </g>
    <path id="Path_802" data-name="Path 802" class="cls-3" d="M79.475,87.825a87.825,87.825,0,1,1,137.371,72.511v6.259c0,16.181-22.183,29.3-49.547,29.3s-49.547-13.117-49.547-29.3v-6.259A87.72,87.72,0,0,1,79.475,87.825Z"/>
    <ellipse id="Ellipse_35" data-name="Ellipse 35" class="cls-4" cx="49.548" cy="29.298" rx="49.548" ry="29.298" transform="translate(117.752 137.296)"/>
    <path id="Path_803" data-name="Path 803" class="cls-5" d="M186.1,197.426c5.313-1.75,10.871-3.78,15.789-7.119q4.058-1.3,4.836,2.89V199l.077-.043a6.355,6.355,0,0,0,3.25-5.541V182.077a12.948,12.948,0,0,1,6.456-11.182l.406-.234q7.852-2.72,9.423,5.44v11.744l.083-.045a6.345,6.345,0,0,0,3.316-5.578V170.835c0-8.757,15.71-18.109,15.71-5.641v.316l7.41-4.156.2-.828c1.4-5.731,10.263-3.571,8.866,2.161l-17.643,72.4c-1.587,6.518-10.13,3.024-8.866-2.161l15.317-62.851-6.962,3.9q-4.084,1.37-4.887-2.862v-5.391c-3.783,2.776-3.273,12.637-2.584,16.5a12.9,12.9,0,0,1-6.743,11.343l-.5.271q-7.781,2.521-9.283-5.519v-11.73a6.368,6.368,0,0,0-3.158,5.489v11.338a12.924,12.924,0,0,1-6.61,11.269c-3.946,1.835-9.843,1.1-9.843-5.206v-.79l-7.511,4.041L208.9,252.043c1.7,5.151-6.606,9.116-8.667,2.855L183.2,203.187a4.561,4.561,0,0,1,2.9-5.761Z" transform="translate(-52.003 -78.969)"/>
    <circle id="Ellipse_36" data-name="Ellipse 36" class="cls-6" cx="38.389" cy="38.389" r="38.389" transform="translate(155.618 21.169)"/>
  </g>
</svg>
